<svg width="1136" height="36" fill="none" xmlns="http://www.w3.org/2000/svg">

<style>
    @media (prefers-color-scheme: dark) {
      path {
          fill: #F0F7FD;
      }
    }
    @media (prefers-color-scheme: light) {
      path {
          fill: #162133;
      }
    }
</style>

<path d="M36.312 1.4a.91.91 0 01.72.336c.224.192.336.416.336.672 0 .192-.048.384-.144.576L25.128 23v10.704c0 .352-.128.656-.384.912s-.56.384-.912.384H13.608c-.352 0-.656-.128-.912-.384a1.246 1.246 0 01-.384-.912V23L.264 2.984a1.195 1.195 0 01-.144-.528c0-.288.096-.528.288-.72.224-.224.48-.336.768-.336h10.128c.896 0 1.552.368 1.968 1.104l5.424 9.504L24.264 2.6c.48-.8 1.152-1.2 2.016-1.2h10.032zM77.38 21.128c0 4.896-1.632 8.512-4.896 10.848-3.232 2.336-7.552 3.504-12.96 3.504-5.408 0-9.744-1.168-13.008-3.504-3.232-2.336-4.848-5.984-4.848-10.944v-5.664c0-3.264.768-5.968 2.304-8.112 1.568-2.176 3.696-3.776 6.384-4.8S56.101.92 59.525.92c3.424 0 6.464.512 9.12 1.536 2.688 1.024 4.816 2.608 6.384 4.752 1.568 2.144 2.352 4.832 2.352 8.064v5.856zm-22.752.912c0 1.312.432 2.32 1.296 3.024.896.704 2.096 1.056 3.6 1.056s2.688-.352 3.552-1.056c.896-.736 1.344-1.76 1.344-3.072v-7.584c0-1.312-.448-2.32-1.344-3.024-.864-.736-2.048-1.104-3.552-1.104s-2.704.352-3.6 1.056c-.864.704-1.296 1.712-1.296 3.024v7.68zm45.677 13.44c-5.376 0-9.648-1.168-12.816-3.504-3.136-2.336-4.704-5.984-4.704-10.944V2.696c0-.352.128-.656.384-.912s.56-.384.912-.384h10.032c.352 0 .656.128.912.384s.384.56.384.912V21.8c0 1.312.432 2.32 1.296 3.024.896.704 2.096 1.056 3.6 1.056s2.688-.352 3.552-1.056c.896-.704 1.344-1.712 1.344-3.024V2.696c0-.352.128-.656.384-.912s.56-.384.912-.384h10.032c.352 0 .656.128.912.384s.384.56.384.912v18.336c0 4.96-1.584 8.608-4.752 10.944-3.136 2.336-7.392 3.504-12.768 3.504zm74.651-2.112c-.416 1.088-1.136 1.632-2.16 1.632h-9.072c-.288 0-.544-.096-.768-.288a1.147 1.147 0 01-.288-.768l.048-.288 10.464-30.672c.128-.416.368-.784.72-1.104.352-.32.832-.48 1.44-.48h13.344c.608 0 1.088.16 1.44.48.352.32.592.688.72 1.104l10.464 30.672.048.288c0 .288-.112.544-.336.768a.977.977 0 01-.72.288h-9.072c-1.024 0-1.744-.544-2.16-1.632l-1.2-3.36h-11.712l-1.2 3.36zm7.056-22.704l-3.408 9.984h6.816l-3.408-9.984zm59.693 22.848a.953.953 0 01.096.432c0 .288-.112.544-.336.768a.977.977 0 01-.72.288H229.85c-.448 0-.864-.112-1.248-.336a1.991 1.991 0 01-.768-.864l-4.224-9.504h-4.032v9.408c0 .352-.128.656-.384.912s-.56.384-.912.384h-10.368c-.352 0-.656-.128-.912-.384a1.246 1.246 0 01-.384-.912V2.696c0-.352.128-.656.384-.912s.56-.384.912-.384h18.672c2.88 0 5.392.464 7.536 1.392 2.176.928 3.84 2.272 4.992 4.032 1.152 1.76 1.728 3.824 1.728 6.192 0 4.352-1.68 7.504-5.04 9.456l5.904 11.04zm-16.128-18.096c.704 0 1.248-.224 1.632-.672.384-.48.576-1.072.576-1.776s-.192-1.312-.576-1.824c-.352-.544-.896-.816-1.632-.816h-6v5.088h6zm53.405 10.224c.352 0 .656.128.912.384s.384.56.384.912v6.768c0 .352-.128.656-.384.912s-.56.384-.912.384h-30.336c-.352 0-.656-.128-.912-.384a1.246 1.246 0 01-.384-.912V2.696c0-.352.128-.656.384-.912s.56-.384.912-.384h29.856c.352 0 .656.128.912.384s.384.56.384.912v6.768c0 .352-.128.656-.384.912s-.56.384-.912.384h-18.672v3.024h16.032c.352 0 .656.128.912.384s.384.56.384.912v6.24c0 .352-.128.656-.384.912s-.56.384-.912.384h-16.032v3.024h19.152zm68.651-12.048c3.52.384 6.336 1.008 8.448 1.872 2.144.864 3.696 2 4.656 3.408.96 1.408 1.44 3.168 1.44 5.28 0 2.304-.752 4.32-2.256 6.048-1.472 1.696-3.52 3.008-6.144 3.936-2.624.896-5.616 1.344-8.976 1.344-3.744 0-6.912-.464-9.504-1.392-2.592-.928-4.528-2.16-5.808-3.696-1.28-1.568-1.92-3.28-1.92-5.136 0-.32.096-.576.288-.768.224-.192.496-.288.816-.288h9.84c.672 0 1.216.208 1.632.624a4.404 4.404 0 001.824 1.056c.672.16 1.616.24 2.832.24 3.04 0 4.56-.464 4.56-1.392 0-.384-.208-.704-.624-.96-.384-.288-1.088-.528-2.112-.72-.992-.224-2.464-.448-4.416-.672-4.384-.512-7.744-1.6-10.08-3.264-2.336-1.696-3.504-4.08-3.504-7.152 0-2.176.656-4.096 1.968-5.76 1.312-1.664 3.168-2.96 5.568-3.888C338.594 1.384 341.41.92 344.61.92c3.328 0 6.24.528 8.736 1.584 2.496 1.024 4.4 2.304 5.712 3.84 1.312 1.536 1.968 3.04 1.968 4.512 0 .32-.112.576-.336.768-.192.192-.464.288-.816.288h-10.32c-.544 0-1.04-.192-1.488-.576a4.096 4.096 0 00-1.248-.768c-.48-.192-1.216-.288-2.208-.288-2.144 0-3.216.448-3.216 1.344 0 .48.416.864 1.248 1.152.832.256 2.496.528 4.992.816zM390.671 1.4c3.008 0 5.632.512 7.872 1.536s3.952 2.416 5.136 4.176c1.184 1.76 1.776 3.728 1.776 5.904 0 3.584-1.12 6.4-3.36 8.448-2.24 2.016-6.048 3.024-11.424 3.024h-6.336v9.216c0 .352-.128.656-.384.912s-.56.384-.912.384h-10.32c-.352 0-.656-.128-.912-.384a1.246 1.246 0 01-.384-.912V2.696c0-.352.128-.656.384-.912s.56-.384.912-.384h17.952zm-.192 14.208c.768 0 1.376-.224 1.824-.672.448-.48.672-1.104.672-1.872 0-.8-.224-1.456-.672-1.968-.448-.512-1.056-.768-1.824-.768h-6.096v5.28h6.096zm51.629 10.032c.352 0 .656.128.912.384s.384.56.384.912v6.768c0 .352-.128.656-.384.912s-.56.384-.912.384h-30.336c-.352 0-.656-.128-.912-.384a1.246 1.246 0 01-.384-.912V2.696c0-.352.128-.656.384-.912s.56-.384.912-.384h29.856c.352 0 .656.128.912.384s.384.56.384.912v6.768c0 .352-.128.656-.384.912s-.56.384-.912.384h-18.672v3.024h16.032c.352 0 .656.128.912.384s.384.56.384.912v6.24c0 .352-.128.656-.384.912s-.56.384-.912.384h-16.032v3.024h19.152zm20.814-3.6c0 1.312.432 2.32 1.296 3.024.896.704 2.096 1.056 3.6 1.056 1.344 0 2.336-.224 2.976-.672.64-.448 1.184-1.12 1.632-2.016.416-.832.976-1.248 1.68-1.248h10.368a.91.91 0 01.72.336.91.91 0 01.336.72c0 1.952-.656 3.872-1.968 5.76-1.312 1.856-3.312 3.408-6 4.656-2.656 1.216-5.904 1.824-9.744 1.824-3.424 0-6.48-.512-9.168-1.536-2.656-1.056-4.768-2.656-6.336-4.8-1.568-2.176-2.352-4.88-2.352-8.112v-5.664c0-3.232.784-5.92 2.352-8.064 1.568-2.176 3.68-3.776 6.336-4.8 2.688-1.056 5.744-1.584 9.168-1.584 3.84 0 7.088.624 9.744 1.872 2.688 1.216 4.688 2.768 6 4.656 1.312 1.856 1.968 3.76 1.968 5.712 0 .288-.112.544-.336.768a.977.977 0 01-.72.288h-10.368c-.704 0-1.264-.416-1.68-1.248-.448-.896-.992-1.568-1.632-2.016-.64-.448-1.632-.672-2.976-.672-1.504 0-2.704.352-3.6 1.056-.864.704-1.296 1.712-1.296 3.024v7.68zm51.725 3.12h8.688c.352 0 .656.128.912.384s.384.56.384.912v7.248c0 .352-.128.656-.384.912s-.56.384-.912.384h-30.432c-.352 0-.656-.128-.912-.384a1.246 1.246 0 01-.384-.912v-7.248c0-.352.128-.656.384-.912s.56-.384.912-.384h8.784V11.24h-8.784c-.352 0-.656-.128-.912-.384a1.246 1.246 0 01-.384-.912V2.696c0-.352.128-.656.384-.912s.56-.384.912-.384h30.432c.352 0 .656.128.912.384s.384.56.384.912v7.248c0 .352-.128.656-.384.912s-.56.384-.912.384h-8.688v13.92zm27.341 8.208c-.416 1.088-1.136 1.632-2.16 1.632h-9.072c-.288 0-.544-.096-.768-.288a1.147 1.147 0 01-.288-.768l.048-.288 10.464-30.672c.128-.416.368-.784.72-1.104.352-.32.832-.48 1.44-.48h13.344c.608 0 1.088.16 1.44.48.352.32.592.688.72 1.104l10.464 30.672.048.288c0 .288-.112.544-.336.768a.977.977 0 01-.72.288h-9.072c-1.024 0-1.744-.544-2.16-1.632l-1.2-3.36h-11.712l-1.2 3.36zm7.056-22.704l-3.408 9.984h6.816l-3.408-9.984zm56.285 14.496c.352 0 .656.128.912.384s.384.56.384.912v7.248c0 .352-.128.656-.384.912s-.56.384-.912.384h-28.032c-.352 0-.656-.128-.912-.384a1.246 1.246 0 01-.384-.912V2.696c0-.352.128-.656.384-.912s.56-.384.912-.384h10.368c.352 0 .656.128.912.384s.384.56.384.912V25.16h16.368zm69.515-13.488a5.06 5.06 0 00-5.088 5.088 5.06 5.06 0 005.088 5.088 5.06 5.06 0 005.088-5.088 5.06 5.06 0 00-5.088-5.088zM775.577 25.64c.352 0 .656.128.912.384s.384.56.384.912v6.768c0 .352-.128.656-.384.912s-.56.384-.912.384h-30.336c-.352 0-.656-.128-.912-.384a1.246 1.246 0 01-.384-.912V2.696c0-.352.128-.656.384-.912s.56-.384.912-.384h29.856c.352 0 .656.128.912.384s.384.56.384.912v6.768c0 .352-.128.656-.384.912s-.56.384-.912.384h-18.672v3.024h16.032c.352 0 .656.128.912.384s.384.56.384.912v6.24c0 .352-.128.656-.384.912s-.56.384-.912.384h-16.032v3.024h19.152zm40.877-.48c.352 0 .656.128.912.384s.384.56.384.912v7.248c0 .352-.128.656-.384.912s-.56.384-.912.384h-28.032c-.352 0-.656-.128-.912-.384a1.246 1.246 0 01-.384-.912V2.696c0-.352.128-.656.384-.912s.56-.384.912-.384h10.368c.352 0 .656.128.912.384s.384.56.384.912V25.16h16.368zm40.686.48c.352 0 .656.128.912.384s.384.56.384.912v6.768c0 .352-.128.656-.384.912s-.56.384-.912.384h-30.336c-.352 0-.656-.128-.912-.384a1.246 1.246 0 01-.384-.912V2.696c0-.352.128-.656.384-.912s.56-.384.912-.384h29.856c.352 0 .656.128.912.384s.384.56.384.912v6.768c0 .352-.128.656-.384.912s-.56.384-.912.384h-18.672v3.024h16.032c.352 0 .656.128.912.384s.384.56.384.912v6.24c0 .352-.128.656-.384.912s-.56.384-.912.384h-16.032v3.024h19.152zm20.813-3.6c0 1.312.432 2.32 1.296 3.024.896.704 2.096 1.056 3.6 1.056 1.344 0 2.336-.224 2.976-.672.64-.448 1.184-1.12 1.632-2.016.416-.832.976-1.248 1.68-1.248h10.368a.91.91 0 01.72.336.91.91 0 01.336.72c0 1.952-.656 3.872-1.968 5.76-1.312 1.856-3.312 3.408-6 4.656-2.656 1.216-5.904 1.824-9.744 1.824-3.424 0-6.48-.512-9.168-1.536-2.656-1.056-4.768-2.656-6.336-4.8-1.568-2.176-2.352-4.88-2.352-8.112v-5.664c0-3.232.784-5.92 2.352-8.064 1.568-2.176 3.68-3.776 6.336-4.8 2.688-1.056 5.744-1.584 9.168-1.584 3.84 0 7.088.624 9.744 1.872 2.688 1.216 4.688 2.768 6 4.656 1.312 1.856 1.968 3.76 1.968 5.712 0 .288-.112.544-.336.768a.977.977 0 01-.72.288h-10.368c-.704 0-1.264-.416-1.68-1.248-.448-.896-.992-1.568-1.632-2.016-.64-.448-1.632-.672-2.976-.672-1.504 0-2.704.352-3.6 1.056-.864.704-1.296 1.712-1.296 3.024v7.68zM939.71 1.4c.352 0 .656.128.912.384s.384.56.384.912v7.728c0 .352-.128.656-.384.912s-.56.384-.912.384h-10.32v21.984c0 .352-.128.656-.384.912s-.56.384-.912.384h-9.888c-.352 0-.656-.128-.912-.384a1.246 1.246 0 01-.384-.912V11.72h-10.32c-.352 0-.656-.128-.912-.384a1.246 1.246 0 01-.384-.912V2.696c0-.352.128-.656.384-.912s.56-.384.912-.384h33.12zm43.277 32.112a.953.953 0 01.096.432c0 .288-.112.544-.336.768a.977.977 0 01-.72.288h-10.896c-.448 0-.864-.112-1.248-.336a1.991 1.991 0 01-.768-.864l-4.224-9.504h-4.032v9.408c0 .352-.128.656-.384.912s-.56.384-.912.384h-10.368c-.352 0-.656-.128-.912-.384a1.246 1.246 0 01-.384-.912V2.696c0-.352.128-.656.384-.912s.56-.384.912-.384h18.672c2.88 0 5.392.464 7.536 1.392 2.176.928 3.84 2.272 4.992 4.032 1.152 1.76 1.728 3.824 1.728 6.192 0 4.352-1.68 7.504-5.04 9.456l5.904 11.04zm-16.128-18.096c.704 0 1.248-.224 1.632-.672.384-.48.576-1.072.576-1.776s-.192-1.312-.576-1.824c-.352-.544-.896-.816-1.632-.816h-6v5.088h6zm44.381 9.744h8.69c.35 0 .65.128.91.384s.38.56.38.912v7.248c0 .352-.12.656-.38.912s-.56.384-.91.384h-30.433c-.352 0-.656-.128-.912-.384a1.246 1.246 0 01-.384-.912v-7.248c0-.352.128-.656.384-.912s.56-.384.912-.384h8.784V11.24h-8.784c-.352 0-.656-.128-.912-.384a1.246 1.246 0 01-.384-.912V2.696c0-.352.128-.656.384-.912s.56-.384.912-.384h30.433c.35 0 .65.128.91.384s.38.56.38.912v7.248c0 .352-.12.656-.38.912s-.56.384-.91.384h-8.69v13.92zm29.84-3.12c0 1.312.43 2.32 1.29 3.024.9.704 2.1 1.056 3.6 1.056 1.35 0 2.34-.224 2.98-.672.64-.448 1.18-1.12 1.63-2.016.42-.832.98-1.248 1.68-1.248h10.37c.29 0 .53.112.72.336.22.192.34.432.34.72 0 1.952-.66 3.872-1.97 5.76-1.31 1.856-3.31 3.408-6 4.656-2.66 1.216-5.91 1.824-9.75 1.824-3.42 0-6.48-.512-9.16-1.536-2.66-1.056-4.77-2.656-6.34-4.8-1.57-2.176-2.35-4.88-2.35-8.112v-5.664c0-3.232.78-5.92 2.35-8.064 1.57-2.176 3.68-3.776 6.34-4.8 2.68-1.056 5.74-1.584 9.16-1.584 3.84 0 7.09.624 9.75 1.872 2.69 1.216 4.69 2.768 6 4.656 1.31 1.856 1.97 3.76 1.97 5.712 0 .288-.12.544-.34.768a.97.97 0 01-.72.288h-10.37c-.7 0-1.26-.416-1.68-1.248-.45-.896-.99-1.568-1.63-2.016-.64-.448-1.63-.672-2.98-.672-1.5 0-2.7.352-3.6 1.056-.86.704-1.29 1.712-1.29 3.024v7.68zm89.58-10.368a5.057 5.057 0 00-5.09 5.088 5.057 5.057 0 005.09 5.088c2.83 0 5.08-2.256 5.08-5.088a5.055 5.055 0 00-5.08-5.088z"/></svg>