<svg width="1266" height="36" fill="none" xmlns="http://www.w3.org/2000/svg">


<style>
    @media (prefers-color-scheme: dark) {
      path {
          fill: #F0F7FD;
      }
    }
    @media (prefers-color-scheme: light) {
      path {
          fill: #162133;
      }
    }
</style>

<path d="M37.232 1.736l-.76.65.05.06.059.05.65-.76zm.192 1.248l.856.517.02-.034.018-.036-.894-.447zM25.328 23l-.856-.517-.144.238V23h1zm-.384 11.616l-.707-.707.707.707zm-12.048 0l.707-.707-.707.707zM12.512 23h1v-.278l-.144-.238-.856.516zM.464 2.984l-.895.447.018.035.02.034.857-.516zm.144-1.248l.707.707-.707-.707zm12.864.768l-.87.492.001.004.869-.496zm5.424 9.504l-.869.496.853 1.494.876-1.48-.86-.51zM24.464 2.6l-.858-.514-.003.005.86.509zm12.048-.2c.007 0 .006 0 0 0a.125.125 0 01-.047-.022c-.003-.002 0 0 .007.009l1.519-1.302A1.908 1.908 0 0036.511.4v2zm.069.095c.028.025.022.027.008 0a.214.214 0 01-.021-.087h2c0-.594-.277-1.081-.685-1.431L36.58 2.495zm-.013-.087c0 .02-.004.06-.039.129l1.79.894c.156-.314.249-.658.249-1.023h-2zm0 .059L24.472 22.483l1.712 1.034L38.28 3.501l-1.712-1.034zM24.328 23v10.704h2V23h-2zm0 10.704c0 .078-.017.13-.091.205l1.414 1.414c.437-.437.677-.993.677-1.619h-2zm-.091.205c-.075.074-.127.091-.205.091v2c.625 0 1.181-.24 1.619-.677l-1.414-1.414zm-.205.091H13.808v2h10.224v-2zm-10.224 0c-.079 0-.13-.017-.205-.091l-1.414 1.414c.437.438.993.677 1.619.677v-2zm-.205-.091c-.075-.075-.091-.127-.091-.205h-2c0 .626.24 1.182.677 1.62l1.414-1.415zm-.091-.205V23h-2v10.704h2zm-.144-11.22L1.321 2.468-.393 3.5l12.048 20.016 1.713-1.032zM1.358 2.537a.525.525 0 01-.037-.092c-.004-.014-.001-.01-.001.011h-2c0 .359.107.69.25.975l1.788-.894zm-.038-.081c0-.016.001-.025.002-.028 0-.003 0-.001-.002.003a.07.07 0 01-.006.013c-.002.003-.003.003 0 0L-.098 1.028c-.392.392-.581.892-.581 1.427h2zm-.005-.013a.31.31 0 01.04-.035L1.37 2.4h-.002.009v-2C.795.4.292.638-.1 1.029l1.414 1.414zm.06-.043h10.129v-2H1.376v2zm10.129 0c.562 0 .871.196 1.097.596l1.741-.984C13.736.94 12.734.4 11.504.4v2zm1.1.6l5.423 9.504 1.737-.992-5.424-9.504L12.603 3zm7.152 9.517l5.568-9.408-1.72-1.018-5.569 9.408 1.721 1.018zm5.565-9.403c.317-.527.679-.714 1.159-.714v-2c-1.248 0-2.23.613-2.874 1.686l1.715 1.028zM26.48 2.4h10.032v-2H26.48v2zm51.005 29.576l-.582-.813-.004.003.586.81zm-25.968 0l-.586.81.004.003.582-.813zm-2.544-24.72l-.811-.585-.002.003.813.582zm24.672-4.8l-.36.933.004.001.356-.934zm6.384 4.752l-.807.59.807-.59zM60.925 25.064l-.632.775.007.006.007.005.618-.786zm7.152 0l.632.775.003-.002-.635-.773zm0-13.68l-.648.761.015.013.015.012.618-.786zm-7.152-.048l-.618-.786-.007.005-.007.006.632.775zm20.456 9.792c0 4.653-1.535 7.929-4.478 10.035l1.164 1.626c3.585-2.566 5.314-6.522 5.314-11.661h-2zm-4.482 10.038c-3.01 2.175-7.103 3.314-12.374 3.314v2c5.545 0 10.092-1.197 13.546-3.694l-1.172-1.62zM64.525 34.48c-5.27 0-9.382-1.138-12.426-3.317l-1.164 1.626c3.484 2.493 8.045 3.691 13.59 3.691v-2zm-12.422-3.314c-2.908-2.102-4.434-5.407-4.434-10.134h-2c0 5.193 1.707 9.184 5.262 11.754l1.172-1.62zm-4.434-10.134v-5.664h-2v5.664h2zm0-5.664c0-3.105.729-5.592 2.117-7.53L48.16 6.674c-1.684 2.35-2.491 5.271-2.491 8.694h2zm2.115-7.527c1.446-2.006 3.41-3.49 5.929-4.45l-.712-1.87c-2.857 1.089-5.149 2.804-6.84 5.15l1.623 1.17zm5.929-4.45c2.555-.974 5.487-1.471 8.812-1.471v-2c-3.523 0-6.703.527-9.524 1.602l.712 1.868zm8.812-1.471c3.325 0 6.24.497 8.76 1.47l.72-1.867C71.213.447 68.048-.08 64.525-.08v2zm8.764 1.47c2.523.962 4.488 2.433 5.933 4.408l1.614-1.18c-1.691-2.313-3.982-4.01-6.835-5.096l-.712 1.868zm5.933 4.408c1.417 1.939 2.159 4.407 2.159 7.474h2c0-3.397-.826-6.305-2.545-8.654l-1.614 1.18zm2.159 7.474v5.856h2v-5.856h-2zM58.629 22.04c0 1.553.525 2.87 1.664 3.8l1.264-1.551c-.589-.48-.928-1.178-.928-2.249h-2zm1.678 3.81c1.122.881 2.562 1.27 4.218 1.27v-2c-1.352 0-2.312-.315-2.982-.842l-1.236 1.572zm4.218 1.27c1.654 0 3.088-.388 4.184-1.28l-1.264-1.551c-.632.515-1.566.831-2.92.831v2zm4.187-1.283c1.16-.953 1.709-2.278 1.709-3.845h-2c0 1.057-.346 1.78-.979 2.3l1.27 1.545zm1.709-3.845v-7.584h-2v7.584h2zm0-7.584c0-1.566-.55-2.886-1.726-3.81l-1.236 1.572c.617.485.962 1.18.962 2.238h2zm-1.696-3.785c-1.096-.934-2.536-1.343-4.2-1.343v2c1.344 0 2.272.327 2.903.865l1.297-1.522zm-4.2-1.343c-1.656 0-3.096.389-4.218 1.27l1.236 1.572c.67-.527 1.63-.842 2.982-.842v-2zm-4.232 1.28c-1.14.93-1.664 2.247-1.664 3.8h2c0-1.07.34-1.77.928-2.249l-1.264-1.55zm-1.664 3.8v7.68h2v-7.68h-2zM97.29 31.976l-.597.802.004.003.593-.805zm7.536-30.192l.707-.707-.707.707zm1.68 23.04l-.631.775.006.006.007.005.618-.786zm7.152 0l-.618-.786-.007.005-.006.006.631.775zm13.584-23.04l.707-.707-.707.707zm-4.368 30.192l-.593-.805-.004.003.597.802zm-12.768 2.504c-5.239 0-9.279-1.139-12.222-3.309l-1.187 1.61c3.393 2.502 7.896 3.699 13.409 3.699v-2zm-12.218-3.306c-2.816-2.098-4.302-5.404-4.302-10.142h-2c0 5.182 1.65 9.171 5.107 11.746l1.195-1.604zm-4.302-10.142V2.696h-2v18.336h2zm0-18.336c0-.078.017-.13.091-.205l-1.414-1.414a2.245 2.245 0 00-.677 1.619h2zm.091-.205c.075-.074.127-.091.205-.091v-2c-.625 0-1.181.24-1.619.677l1.414 1.414zm.205-.091h10.032v-2H93.882v2zm10.032 0c.079 0 .131.017.205.091l1.414-1.414A2.243 2.243 0 00103.914.4v2zm.205.091c.075.075.091.127.091.205h2c0-.626-.239-1.182-.677-1.62l-1.414 1.415zm.091.205V21.8h2V2.696h-2zm0 19.104c0 1.553.525 2.87 1.665 3.8l1.263-1.551c-.589-.48-.928-1.178-.928-2.249h-2zm1.678 3.81c1.122.881 2.562 1.27 4.218 1.27v-2c-1.352 0-2.311-.315-2.982-.842l-1.236 1.572zm4.218 1.27c1.654 0 3.088-.388 4.184-1.28l-1.263-1.551c-.632.515-1.567.831-2.921.831v2zm4.17-1.27c1.176-.924 1.726-2.244 1.726-3.81h-2c0 1.058-.345 1.753-.962 2.238l1.236 1.572zm1.726-3.81V2.696h-2V21.8h2zm0-19.104c0-.078.017-.13.091-.205l-1.414-1.414a2.247 2.247 0 00-.677 1.619h2zm.091-.205c.075-.074.127-.091.205-.091v-2c-.625 0-1.181.24-1.619.677l1.414 1.414zm.205-.091h10.032v-2h-10.032v2zm10.032 0c.079 0 .131.017.205.091l1.414-1.414A2.243 2.243 0 00126.33.4v2zm.205.091c.075.075.091.127.091.205h2c0-.626-.239-1.182-.677-1.62l-1.414 1.415zm.091.205v18.336h2V2.696h-2zm0 18.336c0 4.734-1.499 8.04-4.345 10.14l1.187 1.609c3.489-2.573 5.158-6.563 5.158-11.749h-2zm-4.349 10.142c-2.909 2.167-6.931 3.306-12.171 3.306v2c5.512 0 10.003-1.197 13.366-3.702l-1.195-1.604zm72.08 2.194l.934.357.004-.01.004-.01-.942-.337zm-12 1.344l-.759.65.05.06.058.05.651-.76zm-.288-.768l-.987-.164-.013.081v.083h1zm.048-.288l-.947-.323-.026.078-.014.08.987.165zm10.464-30.672l.946.323.005-.014.005-.015-.956-.294zm.72-1.104l-.673-.74.673.74zm16.224 0l.672-.74-.672.74zm.72 1.104l-.956.294.004.015.005.014.947-.323zm10.464 30.672l.986-.164-.013-.081-.027-.078-.946.323zm.048.288h1v-.083l-.014-.081-.986.164zm-.336.768l.707.707-.707-.707zm-11.952-1.344l-.942.336.004.01.004.011.934-.357zm-1.2-3.36l.942-.336-.238-.664h-.704v1zm-11.712 0v-1h-.705l-.237.664.942.336zm5.856-19.344l.946-.323-.946-2.773-.947 2.773.947.323zm-3.408 9.984l-.947-.323-.451 1.323h1.398v-1zm6.816 0v1h1.398l-.452-1.323-.946.323zm-11.398 12.363c-.161.419-.348.653-.521.783-.163.124-.38.206-.705.206v2c.699 0 1.354-.19 1.911-.61.547-.414.927-.996 1.183-1.665l-1.868-.714zm-1.226.989h-9.072v2h9.072v-2zm-9.072 0c-.043 0-.07-.007-.117-.047l-1.302 1.518c.4.344.886.529 1.419.529v-2zm-.009.061c-.041-.047-.047-.074-.047-.117h-2c0 .533.185 1.018.529 1.419l1.518-1.302zm-.061.047l.048-.288-1.973-.328-.048.288 1.973.328zm.008-.13l10.464-30.671-1.893-.646-10.464 30.672 1.893.646zm10.474-30.7c.07-.229.204-.447.436-.658l-1.345-1.48a3.457 3.457 0 00-1.003 1.55l1.912.588zm.436-.658c.122-.11.337-.22.768-.22v-2c-.786 0-1.53.21-2.113.74l1.345 1.48zm.768-.22h13.344v-2h-13.344v2zm13.344 0c.43 0 .646.11.767.22l1.345-1.48c-.582-.53-1.327-.74-2.112-.74v2zm.767.22c.232.21.367.43.437.658l1.912-.588a3.46 3.46 0 00-1.004-1.55l-1.345 1.48zm.446.687l10.464 30.672 1.893-.646-10.464-30.672-1.893.646zm10.424 30.513l.048.288 1.973-.328-.048-.288-1.973.328zm.035.124l-.001.008h.001l-.008.013a.32.32 0 01-.035.04l1.414 1.414c.391-.39.629-.894.629-1.475h-2zm-.043.06c-.004.005-.004.004-.001.002a.075.075 0 01.012-.007h.004a.168.168 0 01-.028.001v2c.535 0 1.035-.19 1.427-.58l-1.414-1.415zm-.013-.004h-9.072v2h9.072v-2zm-9.072 0c-.325 0-.542-.082-.705-.206-.173-.13-.361-.364-.521-.783l-1.868.714c.255.67.636 1.251 1.183 1.665.557.42 1.212.61 1.911.61v-2zm-1.218-.968l-1.2-3.36-1.884.672 1.2 3.36 1.884-.672zm-2.142-4.024h-11.712v2h11.712v-2zm-12.654.664l-1.2 3.36 1.884.672 1.2-3.36-1.884-.672zm5.851-19.331l-3.408 9.984 1.893.646 3.408-9.984-1.893-.646zm-2.461 11.307h6.816v-2h-6.816v2zm7.762-1.323l-3.408-9.984-1.893.646 3.408 9.984 1.893-.646zm60.139 13.187l.894-.447-.006-.012-.006-.013-.882.472zm-.24 1.2l-.707-.707.707.707zm-12.864-.048l-.537.844.016.01.017.01.504-.864zm-.768-.864l-.914.406.004.008.91-.414zm-4.224-9.504l.914-.406-.264-.594h-.65v1zm-4.032 0v-1h-1v1h1zm-.384 10.32l-.707-.707.707.707zm14.928-31.824l-.397.918.005.002.392-.92zm4.992 4.032l-.837.548.837-.548zm-3.312 15.648l-.502-.865-.835.485.455.852.882-.472zm-8.592-7.728l.759.65.011-.012.011-.013-.781-.625zm0-3.6l-.84.543.019.03.021.027.8-.6zm-7.632-.816v-1h-1v1h1zm0 5.088h-1v1h1v-1zm21.234 18.543l-.007-.015a.032.032 0 01-.003-.011v.011h2c0-.297-.06-.597-.202-.88l-1.788.895zm-.01-.015v.008s0-.001 0 0l-.008.013a.32.32 0 01-.035.04l1.414 1.414c.391-.39.629-.894.629-1.475h-2zm-.043.06c-.004.005-.004.004-.001.002l.013-.007h.003a.168.168 0 01-.028.001v2c.535 0 1.035-.19 1.427-.58l-1.414-1.415zm-.013-.004H254.05v2h10.896v-2zm-10.896 0c-.272 0-.514-.066-.744-.2l-1.008 1.728a3.433 3.433 0 001.752.472v-2zm-.711-.18a.998.998 0 01-.395-.434l-1.82.828c.246.542.639.974 1.141 1.294l1.074-1.688zm-.391-.426l-4.224-9.504-1.828.812 4.224 9.504 1.828-.812zm-5.138-10.098h-4.032v2h4.032v-2zm-5.032 1v9.408h2v-9.408h-2zm0 9.408c0 .078-.017.13-.091.205l1.414 1.414c.438-.437.677-.993.677-1.619h-2zm-.091.205c-.075.074-.127.091-.205.091v2c.626 0 1.182-.24 1.619-.677l-1.414-1.414zm-.205.091h-10.368v2h10.368v-2zm-10.368 0c-.078 0-.13-.017-.205-.091l-1.414 1.414c.437.438.993.677 1.619.677v-2zm-.205-.091c-.074-.075-.091-.127-.091-.205h-2c0 .626.239 1.182.677 1.62l1.414-1.415zm-.091-.205V2.696h-2v31.008h2zm0-31.008c0-.078.017-.13.091-.205l-1.414-1.414a2.243 2.243 0 00-.677 1.619h2zm.091-.205c.075-.074.127-.091.205-.091v-2c-.626 0-1.182.24-1.619.677l1.414 1.414zm.205-.091h18.672v-2h-18.672v2zm18.672 0c2.774 0 5.146.447 7.139 1.31l.794-1.836C256.424.881 253.772.4 250.786.4v2zm7.144 1.312c2.018.86 3.517 2.085 4.547 3.66l1.674-1.096c-1.274-1.945-3.102-3.408-5.437-4.404l-.784 1.84zm4.547 3.66c1.033 1.577 1.565 3.445 1.565 5.644h2c0-2.537-.62-4.797-1.891-6.74l-1.674 1.096zm1.565 5.644c0 4.047-1.532 6.843-4.542 8.591l1.004 1.73c3.711-2.156 5.538-5.664 5.538-10.321h-2zm-4.922 9.928l5.904 11.04 1.764-.944L260.884 22l-1.764.944zm-9.342-6.528c.934 0 1.78-.308 2.391-1.021l-1.518-1.302c-.157.184-.399.323-.873.323v2zm2.413-1.047c.546-.683.795-1.505.795-2.401h-2c0 .512-.135.874-.357 1.151l1.562 1.25zm.795-2.401c0-.898-.249-1.722-.776-2.424l-1.6 1.2c.241.322.376.713.376 1.224h2zm-.736-2.367c-.564-.872-1.451-1.273-2.472-1.273v2c.451 0 .652.143.792.36l1.68-1.087zm-2.472-1.273h-6v2h6v-2zm-7 1v5.088h2v-5.088h-2zm1 6.088h6v-2h-6v2zm65.117 9.608l-.707.707.707-.707zm0 8.592l-.707-.707.707.707zm-.48-32.832l-.707.707.707-.707zm0 8.592l-.707-.707.707.707zm-19.584.384v-1h-1v1h1zm0 3.024h-1v1h1v-1zm16.944.384l-.707.707.707-.707zm0 8.064l-.707-.707.707.707zm-16.944.384v-1h-1v1h1zm0 3.024h-1v1h1v-1zm19.152 1c.079 0 .131.017.205.091l1.414-1.414a2.243 2.243 0 00-1.619-.677v2zm.205.091c.075.075.091.127.091.205h2c0-.626-.239-1.182-.677-1.62l-1.414 1.415zm.091.205v6.768h2v-6.768h-2zm0 6.768c0 .078-.016.13-.091.205l1.414 1.414c.438-.437.677-.993.677-1.619h-2zm-.091.205c-.074.074-.126.091-.205.091v2c.626 0 1.182-.24 1.619-.677l-1.414-1.414zm-.205.091h-30.336v2h30.336v-2zm-30.336 0c-.078 0-.13-.017-.205-.091l-1.414 1.414c.438.438.994.677 1.619.677v-2zm-.205-.091c-.074-.075-.091-.127-.091-.205h-2c0 .626.24 1.182.677 1.62l1.414-1.415zm-.091-.205V2.696h-2v31.008h2zm0-31.008c0-.078.017-.13.091-.205l-1.414-1.414a2.247 2.247 0 00-.677 1.619h2zm.091-.205c.075-.074.127-.091.205-.091v-2c-.625 0-1.181.24-1.619.677l1.414 1.414zm.205-.091h29.856v-2h-29.856v2zm29.856 0c.079 0 .131.017.205.091l1.414-1.414A2.243 2.243 0 00307.503.4v2zm.205.091c.075.075.091.127.091.205h2c0-.626-.239-1.182-.677-1.62l-1.414 1.415zm.091.205v6.768h2V2.696h-2zm0 6.768c0 .078-.016.13-.091.205l1.414 1.414c.438-.437.677-.993.677-1.619h-2zm-.091.205c-.074.074-.126.091-.205.091v2c.626 0 1.182-.24 1.619-.677l-1.414-1.414zm-.205.091h-18.672v2h18.672v-2zm-19.672 1v3.024h2V10.76h-2zm1 4.024h16.032v-2h-16.032v2zm16.032 0c.079 0 .131.017.205.091l1.414-1.414a2.243 2.243 0 00-1.619-.677v2zm.205.091c.075.075.091.127.091.205h2c0-.626-.239-1.182-.677-1.62l-1.414 1.415zm.091.205v6.24h2v-6.24h-2zm0 6.24c0 .078-.016.13-.091.205l1.414 1.414c.438-.437.677-.993.677-1.619h-2zm-.091.205c-.074.074-.126.091-.205.091v2c.626 0 1.182-.24 1.619-.677l-1.414-1.414zm-.205.091h-16.032v2h16.032v-2zm-17.032 1v3.024h2v-3.024h-2zm1 4.024h19.152v-2h-19.152v2zm97.403-13.048l-.115.993.006.001.109-.994zm8.448 1.872l-.379.926.005.002.374-.928zm4.656 3.408l-.826.563.826-.563zm-.816 11.328l-.755-.656.755.656zm-6.144 3.936l.323.946.01-.003-.333-.943zm-18.48-.048l-.337.941.337-.941zm-5.808-3.696l-.775.632.007.008.768-.64zm-1.632-5.904l-.651-.76-.029.026-.027.027.707.707zm12.288.336l-.707.707.01.01.011.011.686-.728zm1.824 1.056l-.275.962.021.006.022.005.232-.973zm6.768-2.112l-.6.8.037.028.039.024.524-.852zm-2.112-.72l-.221.975.018.005.018.003.185-.983zm-4.416-.672l-.116.993h.002l.114-.993zm-10.08-3.264l-.588.81.008.005.58-.815zM369.194 6.2l-.786-.62.786.62zm5.568-3.888l-.357-.934-.004.001.361.933zm17.184.192l-.39.921.01.004.38-.925zm5.712 3.84l-.761.65.761-.65zm1.632 5.28l-.651-.76-.029.026-.027.027.707.707zm-12.624-.288l-.673.74.011.01.011.01.651-.76zm-1.248-.768l-.372.928.372-.928zm-4.176 2.208l-.327.945.016.006.017.005.294-.956zm4.883 1.81c3.473.379 6.186.989 8.178 1.804l.757-1.851c-2.232-.914-5.15-1.552-8.718-1.941l-.217 1.988zm8.183 1.806c2.024.815 3.388 1.848 4.204 3.043l1.652-1.126c-1.105-1.62-2.845-2.86-5.108-3.773l-.748 1.856zm4.204 3.043c.822 1.206 1.266 2.758 1.266 4.717h2c0-2.265-.516-4.233-1.614-5.843l-1.652 1.126zm1.266 4.717c0 2.064-.666 3.847-2.011 5.392l1.509 1.313c1.663-1.912 2.502-4.161 2.502-6.705h-2zm-2.011 5.392c-1.335 1.538-3.223 2.765-5.723 3.65l.667 1.885c2.749-.972 4.956-2.37 6.566-4.224l-1.51-1.31zm-5.712 3.646c-2.501.854-5.381 1.29-8.653 1.29v2c3.447 0 6.552-.46 9.299-1.398l-.646-1.892zm-8.653 1.29c-3.668 0-6.714-.455-9.167-1.333l-.674 1.883c2.731.977 6.02 1.45 9.841 1.45v-2zm-9.167-1.333c-2.485-.89-4.246-2.038-5.377-3.395l-1.536 1.28c1.429 1.716 3.539 3.031 6.239 3.997l.674-1.883zm-5.371-3.387c-1.148-1.407-1.694-2.9-1.694-4.504h-2c0 2.108.733 4.04 2.145 5.768l1.549-1.264zm-1.694-4.504c0-.06.009-.082.008-.08l-.005.009-.008.01-1.414-1.414c-.413.413-.581.94-.581 1.475h2zm-.061-.009c.026-.023.062-.047.165-.047v-2a2.21 2.21 0 00-1.467.529l1.302 1.518zm.165-.047h9.84v-2h-9.84v2zm9.84 0c.448 0 .723.13.925.331l1.414-1.414c-.631-.63-1.443-.917-2.339-.917v2zm.946.352a5.404 5.404 0 002.235 1.29l.549-1.923a3.411 3.411 0 01-1.413-.823l-1.371 1.456zm2.278 1.3c.784.188 1.819.268 3.064.268v-2c-1.188 0-2.041-.08-2.601-.213l-.463 1.946zm3.064.268c1.546 0 2.806-.115 3.712-.392.838-.256 1.848-.82 1.848-2h-2c0-.251.249-.12-.432.088-.615.187-1.634.304-3.128.304v2zm5.56-2.392c0-.827-.48-1.43-1.1-1.812l-1.048 1.704c.116.071.149.119.153.125.002.002-.001-.001-.003-.01-.003-.008-.002-.011-.002-.007h2zm-1.024-1.76c-.584-.438-1.49-.708-2.528-.903l-.369 1.966c1.01.19 1.512.399 1.697.537l1.2-1.6zm-2.492-.895c-1.046-.237-2.561-.465-4.522-.69l-.228 1.986c1.942.223 3.371.443 4.309.654l.441-1.95zm-4.52-.69c-4.299-.502-7.472-1.558-9.616-3.085l-1.16 1.629c2.527 1.8 6.075 2.92 10.544 3.442l.232-1.986zm-9.609-3.08c-2.058-1.494-3.091-3.567-3.091-6.343h-2c0 3.368 1.302 6.063 3.916 7.961l1.175-1.618zm-3.091-6.343c0-1.958.584-3.658 1.753-5.14l-1.571-1.24c-1.455 1.846-2.182 3.986-2.182 6.38h2zm1.753-5.14c1.18-1.497 2.875-2.698 5.143-3.575l-.721-1.866c-2.531.98-4.548 2.37-5.993 4.202l1.571 1.238zm5.139-3.574c2.296-.876 4.987-1.326 8.092-1.326v-2c-3.295 0-6.236.478-8.805 1.458l.713 1.868zm8.092-1.326c3.224 0 5.998.512 8.346 1.505l.779-1.842C389.691.464 386.642-.08 383.21-.08v2zm8.356 1.51c2.396.982 4.151 2.182 5.331 3.563l1.521-1.298c-1.444-1.691-3.497-3.051-6.093-4.116l-.759 1.85zm5.331 3.563c1.215 1.423 1.729 2.705 1.729 3.863h2c0-1.786-.799-3.512-2.208-5.161l-1.521 1.298zm1.729 3.863a.165.165 0 01-.003.037l.003-.006a.112.112 0 01.011-.019c.004-.005.006-.006.002-.003l1.302 1.518c.466-.4.685-.943.685-1.527h-2zm-.043.06a.121.121 0 01.02-.016l.006-.003a.437.437 0 01-.135.015v2c.535 0 1.092-.15 1.523-.58l-1.414-1.415zm-.109-.004h-10.32v2h10.32v-2zm-10.32 0c-.285 0-.554-.092-.837-.335l-1.302 1.518c.613.525 1.335.817 2.139.817v-2zm-.816-.316a5.086 5.086 0 00-1.549-.956l-.743 1.856c.379.152.691.347.947.58l1.345-1.48zm-1.549-.956c-.662-.265-1.555-.36-2.579-.36v2c.96 0 1.539.097 1.836.216l.743-1.856zm-2.579-.36c-1.112 0-2.076.112-2.798.413-.371.155-.73.382-.999.72a1.912 1.912 0 00-.419 1.211h2c0-.008-.004.018-.017.036-.002.001.041-.052.206-.121.351-.147.994-.259 2.027-.259v-2zm-4.216 2.344c0 1.193 1.049 1.795 1.921 2.097l.654-1.89c-.351-.121-.519-.233-.585-.294-.028-.026-.023-.029-.011-.005a.226.226 0 01.021.092h-2zm1.954 2.108c.933.287 2.688.567 5.171.853l.229-1.986c-2.509-.29-4.082-.554-4.812-.779l-.588 1.912zm64.547 7.732l.669.743.006-.005-.675-.738zm-17.76 3.024v-1h-1v1h1zm-.384 10.128l.707.707-.707-.707zm8.352-19.68l.707.707.012-.012.012-.013-.731-.682zm0-3.84l.753-.659-.753.659zm-7.92-.768v-1h-1v1h1zm0 5.28h-1v1h1v-1zM434.071 2.4c2.896 0 5.372.493 7.456 1.445l.832-1.818C439.963.93 437.191.4 434.071.4v2zm7.456 1.445c2.1.96 3.657 2.241 4.722 3.825l1.66-1.116c-1.303-1.936-3.17-3.44-5.55-4.527l-.832 1.818zm4.722 3.825c1.07 1.59 1.606 3.363 1.606 5.346h2c0-2.37-.648-4.533-1.946-6.462l-1.66 1.116zm1.606 5.346c0 3.359-1.04 5.886-3.035 7.71l1.35 1.476c2.485-2.272 3.685-5.377 3.685-9.186h-2zm-3.029 7.705c-1.958 1.762-5.451 2.767-10.755 2.767v2c5.448 0 9.571-1.011 12.093-3.28l-1.338-1.487zm-10.755 2.767h-6.336v2h6.336v-2zm-7.336 1v9.216h2v-9.216h-2zm0 9.216c0 .078-.017.13-.091.205l1.414 1.414c.438-.437.677-.993.677-1.619h-2zm-.091.205c-.075.074-.127.091-.205.091v2c.626 0 1.182-.24 1.619-.677l-1.414-1.414zm-.205.091h-10.32v2h10.32v-2zm-10.32 0c-.078 0-.13-.017-.205-.091l-1.414 1.414c.437.438.993.677 1.619.677v-2zm-.205-.091c-.074-.075-.091-.127-.091-.205h-2c0 .626.239 1.182.677 1.62l1.414-1.415zm-.091-.205V2.696h-2v31.008h2zm0-31.008c0-.078.017-.13.091-.205L414.5 1.077a2.243 2.243 0 00-.677 1.619h2zm.091-.205c.075-.074.127-.091.205-.091v-2c-.626 0-1.182.24-1.619.677l1.414 1.414zm.205-.091h17.952v-2h-17.952v2zm17.76 14.208c.973 0 1.857-.29 2.531-.965l-1.414-1.414c-.222.222-.554.379-1.117.379v2zm2.555-.99c.65-.696.941-1.579.941-2.554h-2c0 .56-.157.926-.403 1.19l1.462 1.364zm.941-2.554c0-.997-.285-1.901-.919-2.627l-1.506 1.318c.262.298.425.706.425 1.309h2zm-.919-2.627c-.664-.758-1.562-1.109-2.577-1.109v2c.521 0 .839.16 1.071.427l1.506-1.318zm-2.577-1.109h-6.096v2h6.096v-2zm-7.096 1v5.28h2v-5.28h-2zm1 6.28h6.096v-2h-6.096v2zm63.437 9.416l-.707.707.707-.707zm0 8.592l-.707-.707.707.707zm-.48-32.832l-.707.707.707-.707zm0 8.592l-.707-.707.707.707zm-19.584.384v-1h-1v1h1zm0 3.024h-1v1h1v-1zm16.944.384l-.707.707.707-.707zm0 8.064l-.707-.707.707.707zm-16.944.384v-1h-1v1h1zm0 3.024h-1v1h1v-1zm19.152 1c.079 0 .131.017.205.091l1.414-1.414a2.243 2.243 0 00-1.619-.677v2zm.205.091c.075.075.091.127.091.205h2c0-.626-.239-1.182-.677-1.62l-1.414 1.415zm.091.205v6.768h2v-6.768h-2zm0 6.768c0 .078-.016.13-.091.205l1.414 1.414c.438-.437.677-.993.677-1.619h-2zm-.091.205c-.074.074-.126.091-.205.091v2c.626 0 1.182-.24 1.619-.677l-1.414-1.414zm-.205.091h-30.336v2h30.336v-2zm-30.336 0c-.078 0-.13-.017-.205-.091l-1.414 1.414c.438.438.994.677 1.619.677v-2zm-.205-.091c-.074-.075-.091-.127-.091-.205h-2c0 .626.24 1.182.677 1.62l1.414-1.415zm-.091-.205V2.696h-2v31.008h2zm0-31.008c0-.078.017-.13.091-.205l-1.414-1.414a2.247 2.247 0 00-.677 1.619h2zm.091-.205c.075-.074.127-.091.205-.091v-2c-.625 0-1.181.24-1.619.677l1.414 1.414zm.205-.091h29.856v-2h-29.856v2zm29.856 0c.079 0 .131.017.205.091l1.414-1.414A2.243 2.243 0 00489.828.4v2zm.205.091c.075.075.091.127.091.205h2c0-.626-.239-1.182-.677-1.62l-1.414 1.415zm.091.205v6.768h2V2.696h-2zm0 6.768c0 .078-.016.13-.091.205l1.414 1.414c.438-.437.677-.993.677-1.619h-2zm-.091.205c-.074.074-.126.091-.205.091v2c.626 0 1.182-.24 1.619-.677l-1.414-1.414zm-.205.091h-18.672v2h18.672v-2zm-19.672 1v3.024h2V10.76h-2zm1 4.024h16.032v-2h-16.032v2zm16.032 0c.079 0 .131.017.205.091l1.414-1.414a2.243 2.243 0 00-1.619-.677v2zm.205.091c.075.075.091.127.091.205h2c0-.626-.239-1.182-.677-1.62l-1.414 1.415zm.091.205v6.24h2v-6.24h-2zm0 6.24c0 .078-.016.13-.091.205l1.414 1.414c.438-.437.677-.993.677-1.619h-2zm-.091.205c-.074.074-.126.091-.205.091v2c.626 0 1.182-.24 1.619-.677l-1.414-1.414zm-.205.091h-16.032v2h16.032v-2zm-17.032 1v3.024h2v-3.024h-2zm1 4.024h19.152v-2h-19.152v2zm46.062-1.576l-.632.775.007.006.007.005.618-.786zm6.576.384l-.574-.82.574.82zm1.632-2.016l-.895-.447.895.447zm12.768-.912l-.76.65.05.06.059.05.651-.76zM536.562 29l.816.577.005-.006-.821-.571zm-6 4.656l.416.91.005-.003-.421-.907zm-18.912.288l-.37.93.007.002.007.003.356-.935zm-6.336-4.8l-.812.585.004.005.808-.59zm0-21.84l.807.59.004-.005-.811-.585zm6.336-4.8l.359.933.006-.002-.365-.931zm18.912.288l-.426.905.007.003.006.003.413-.911zm6 4.656l-.822.57.005.007.817-.577zm1.632 6.48l.707.707-.707-.707zm-12.768-.96l-.895.447.895-.447zm-1.632-2.016l.573-.82-.573.82zm-6.576.384l-.618-.786-.007.005-.007.006.632.775zm-2.296 10.704c0 1.553.524 2.87 1.664 3.8l1.263-1.551c-.588-.48-.927-1.178-.927-2.249h-2zm1.678 3.81c1.121.881 2.561 1.27 4.218 1.27v-2c-1.352 0-2.312-.315-2.983-.842L516.6 25.85zm4.218 1.27c1.417 0 2.658-.23 3.549-.853l-1.147-1.638c-.389.272-1.132.491-2.402.491v2zm3.549-.853c.809-.566 1.451-1.384 1.953-2.388l-1.789-.894c-.394.788-.84 1.314-1.311 1.644l1.147 1.638zm1.953-2.388c.31-.62.585-.695.786-.695v-2c-1.208 0-2.053.758-2.575 1.8l1.789.895zm.786-.695h10.368v-2h-10.368v2zm10.368 0h-.001a.117.117 0 01-.046-.022c-.003-.002 0 0 .007.009l1.519-1.302a1.908 1.908 0 00-1.479-.685v2zm.069.095l.008.008-.012-.02a.299.299 0 01-.009-.027h2c0-.588-.246-1.103-.686-1.48l-1.301 1.52zm-.013-.039c0 1.714-.573 3.438-1.79 5.19l1.643 1.14c1.407-2.024 2.147-4.14 2.147-6.33h-2zm-1.785 5.183c-1.185 1.676-3.028 3.13-5.605 4.326l.843 1.814c2.799-1.3 4.956-2.95 6.395-4.986l-1.633-1.154zm-5.6 4.324c-2.491 1.14-5.588 1.733-9.327 1.733v2c3.94 0 7.339-.623 10.16-1.915l-.833-1.818zm-9.327 1.733c-3.325 0-6.258-.497-8.813-1.47l-.711 1.869c2.821 1.074 6 1.601 9.524 1.601v-2zm-8.799-1.465c-2.495-.992-4.45-2.48-5.898-4.461l-1.615 1.18c1.688 2.308 3.957 4.02 6.774 5.14l.739-1.86zm-5.894-4.456c-1.422-1.973-2.163-4.46-2.163-7.527h-2c0 3.398.826 6.318 2.54 8.697l1.623-1.17zm-2.163-7.527v-5.664h-2v5.664h2zm0-5.664c0-3.067.741-5.535 2.159-7.474l-1.615-1.18c-1.718 2.35-2.544 5.257-2.544 8.654h2zm2.163-7.48c1.447-2.008 3.398-3.492 5.884-4.45l-.719-1.867c-2.826 1.09-5.099 2.805-6.788 5.148l1.623 1.17zm5.89-4.453c2.552-1.003 5.481-1.515 8.803-1.515v-2c-3.527 0-6.71.544-9.534 1.653l.731 1.862zm8.803-1.515c3.736 0 6.83.608 9.318 1.777l.851-1.81C528.163.56 524.761-.08 520.818-.08v2zm9.331 1.783c2.57 1.162 4.408 2.612 5.591 4.316l1.643-1.142c-1.441-2.072-3.603-3.726-6.409-4.996l-.825 1.822zm5.596 4.322c1.213 1.716 1.785 3.422 1.785 5.135h2c0-2.191-.741-4.293-2.152-6.29l-1.633 1.155zm1.785 5.135l-.001.008s.001-.001 0 0l-.008.013a.32.32 0 01-.035.04l1.415 1.414c.391-.39.629-.894.629-1.475h-2zm-.044.06c-.003.005-.003.004 0 .002a.075.075 0 01.012-.006l.004-.002a.168.168 0 01-.028.002v2c.535 0 1.035-.19 1.427-.58l-1.415-1.415zm-.012-.004h-10.368v2h10.368v-2zm-10.368 0c-.201 0-.476-.074-.786-.695l-1.789.894c.522 1.043 1.367 1.801 2.575 1.801v-2zm-.786-.695c-.502-1.004-1.144-1.822-1.953-2.388l-1.147 1.638c.471.33.917.856 1.311 1.644l1.789-.894zm-1.953-2.388c-.891-.624-2.132-.853-3.549-.853v2c1.27 0 2.013.219 2.402.491l1.147-1.638zm-3.549-.853c-1.657 0-3.097.389-4.218 1.27l1.235 1.572c.671-.527 1.631-.842 2.983-.842v-2zm-4.232 1.28c-1.14.93-1.664 2.247-1.664 3.8h2c0-1.07.339-1.77.927-2.249l-1.263-1.55zm-1.664 3.8v7.68h2v-7.68h-2zm57.525 10.8h-1v1h1v-1zm-12.96 0v1h1v-1h-1zm0-13.92h1v-1h-1v1zm-9.696-.384l-.707.707.707-.707zm32.256 0l.707.707-.707-.707zm-9.6.384v-1h-1v1h1zm0 14.92h8.688v-2h-8.688v2zm8.688 0c.078 0 .13.017.205.091l1.414-1.414a2.246 2.246 0 00-1.619-.677v2zm.205.091c.074.075.091.127.091.205h2c0-.626-.24-1.182-.677-1.62l-1.414 1.415zm.091.205v7.248h2v-7.248h-2zm0 7.248c0 .078-.017.13-.091.205l1.414 1.414c.437-.437.677-.993.677-1.619h-2zm-.091.205c-.075.074-.127.091-.205.091v2c.625 0 1.181-.24 1.619-.677l-1.414-1.414zm-.205.091h-30.432v2h30.432v-2zm-30.432 0c-.079 0-.131-.017-.205-.091l-1.414 1.414c.437.438.993.677 1.619.677v-2zm-.205-.091c-.075-.075-.091-.127-.091-.205h-2c0 .626.239 1.182.677 1.62l1.414-1.415zm-.091-.205v-7.248h-2v7.248h2zm0-7.248c0-.078.016-.13.091-.205l-1.414-1.414a2.243 2.243 0 00-.677 1.619h2zm.091-.205c.074-.074.126-.091.205-.091v-2c-.626 0-1.182.24-1.619.677l1.414 1.414zm.205-.091h8.784v-2h-8.784v2zm9.784-1V11.24h-2v13.92h2zm-1-14.92h-8.784v2h8.784v-2zm-8.784 0c-.079 0-.131-.017-.205-.091l-1.414 1.414c.437.438.993.677 1.619.677v-2zm-.205-.091c-.075-.075-.091-.127-.091-.205h-2c0 .626.239 1.182.677 1.62l1.414-1.415zm-.091-.205V2.696h-2v7.248h2zm0-7.248c0-.078.016-.13.091-.205l-1.414-1.414a2.243 2.243 0 00-.677 1.619h2zm.091-.205c.074-.074.126-.091.205-.091v-2c-.626 0-1.182.24-1.619.677l1.414 1.414zm.205-.091h30.432v-2h-30.432v2zm30.432 0c.078 0 .13.017.205.091l1.414-1.414A2.246 2.246 0 00581.135.4v2zm.205.091c.074.075.091.127.091.205h2c0-.626-.24-1.182-.677-1.62l-1.414 1.415zm.091.205v7.248h2V2.696h-2zm0 7.248c0 .078-.017.13-.091.205l1.414 1.414c.437-.437.677-.993.677-1.619h-2zm-.091.205c-.075.074-.127.091-.205.091v2c.625 0 1.181-.24 1.619-.677l-1.414-1.414zm-.205.091h-8.688v2h8.688v-2zm-9.688 1v13.92h2V11.24h-2zm33.141 22.128l.934.357.004-.01.004-.01-.942-.337zm-12 1.344l-.759.65.05.06.058.05.651-.76zm-.288-.768l-.986-.164-.014.081v.083h1zm.048-.288l-.946-.323-.027.078-.013.08.986.165zm10.464-30.672l.946.323.005-.014.005-.015-.956-.294zm.72-1.104l-.673-.74.673.74zm16.224 0l.673-.74-.673.74zm.72 1.104l-.956.294.005.015.005.014.946-.323zm10.464 30.672l.986-.164-.013-.081-.027-.078-.946.323zm.048.288h1v-.083l-.014-.081-.986.164zm-.336.768l.707.707-.707-.707zM618.7 33.368l-.942.336.004.01.004.011.934-.357zm-1.2-3.36l.942-.336-.237-.664h-.705v1zm-11.712 0v-1h-.705l-.237.664.942.336zm5.856-19.344l.946-.323-.946-2.773-.946 2.773.946.323zm-3.408 9.984l-.946-.323-.452 1.323h1.398v-1zm6.816 0v1h1.398l-.452-1.323-.946.323zm-11.398 12.363c-.16.419-.348.653-.521.783-.163.124-.38.206-.705.206v2c.699 0 1.354-.19 1.911-.61.547-.414.927-.996 1.183-1.665l-1.868-.714zm-1.226.989h-9.072v2h9.072v-2zm-9.072 0c-.043 0-.07-.007-.117-.047l-1.302 1.518c.401.344.886.529 1.419.529v-2zm-.009.061c-.041-.047-.047-.074-.047-.117h-2c0 .533.186 1.018.529 1.419l1.518-1.302zm-.061.047l.048-.288-1.972-.328-.048.288 1.972.328zm.008-.13l10.464-30.671-1.892-.646-10.464 30.672 1.892.646zm10.474-30.7c.07-.229.205-.447.437-.658l-1.346-1.48a3.457 3.457 0 00-1.003 1.55l1.912.588zm.437-.658c.121-.11.336-.22.767-.22v-2c-.785 0-1.53.21-2.113.74l1.346 1.48zm.767-.22h13.344v-2h-13.344v2zm13.344 0c.431 0 .646.11.767.22l1.346-1.48c-.583-.53-1.328-.74-2.113-.74v2zm.767.22c.232.21.367.43.437.658l1.912-.588a3.457 3.457 0 00-1.003-1.55l-1.346 1.48zm.447.687l10.464 30.672 1.892-.646-10.464-30.672-1.892.646zm10.424 30.513l.048.288 1.972-.328-.048-.288-1.972.328zm.034.124v.008s0-.001 0 0l-.008.013a.32.32 0 01-.035.04l1.414 1.414c.391-.39.629-.894.629-1.475h-2zm-.043.06c-.004.005-.004.004-.001.002l.013-.007h.003a.168.168 0 01-.028.001v2c.535 0 1.035-.19 1.427-.58l-1.414-1.415zm-.013-.004h-9.072v2h9.072v-2zm-9.072 0c-.325 0-.542-.082-.705-.206-.173-.13-.361-.364-.521-.783l-1.868.714c.256.67.636 1.251 1.183 1.665.557.42 1.212.61 1.911.61v-2zm-1.218-.968l-1.2-3.36-1.884.672 1.2 3.36 1.884-.672zm-2.142-4.024h-11.712v2H617.5v-2zm-12.654.664l-1.2 3.36 1.884.672 1.2-3.36-1.884-.672zm5.852-19.331l-3.408 9.984 1.892.646 3.408-9.984-1.892-.646zm-2.462 11.307h6.816v-2h-6.816v2zm7.762-1.323l-3.408-9.984-1.892.646 3.408 9.984 1.892-.646zm39.979-18.541l-.707.707.707-.707zm.384 23.376h-1v1h1v-1zm16.368 1c.079 0 .131.017.205.091l1.414-1.414a2.243 2.243 0 00-1.619-.677v2zm.205.091c.075.075.091.127.091.205h2c0-.626-.239-1.182-.677-1.62l-1.414 1.415zm.091.205v7.248h2v-7.248h-2zm0 7.248c0 .078-.016.13-.091.205l1.414 1.414c.438-.437.677-.993.677-1.619h-2zm-.091.205c-.074.074-.126.091-.205.091v2c.626 0 1.182-.24 1.619-.677l-1.414-1.414zm-.205.091h-28.032v2h28.032v-2zm-28.032 0c-.078 0-.13-.017-.205-.091l-1.414 1.414c.438.438.994.677 1.619.677v-2zm-.205-.091c-.074-.075-.091-.127-.091-.205h-2c0 .626.24 1.182.677 1.62l1.414-1.415zm-.091-.205V2.696h-2v31.008h2zm0-31.008c0-.078.017-.13.091-.205l-1.414-1.414a2.247 2.247 0 00-.677 1.619h2zm.091-.205c.075-.074.127-.091.205-.091v-2c-.625 0-1.181.24-1.619.677l1.414 1.414zm.205-.091h10.368v-2h-10.368v2zm10.368 0c.079 0 .131.017.205.091l1.414-1.414A2.243 2.243 0 00655.065.4v2zm.205.091c.075.075.091.127.091.205h2c0-.626-.239-1.182-.677-1.62l-1.414 1.415zm.091.205V25.16h2V2.696h-2zm1 23.464h16.368v-2h-16.368v2zm95.483-15.488a6.06 6.06 0 00-6.088 6.088h2a4.06 4.06 0 014.088-4.088v-2zm-6.088 6.088a6.06 6.06 0 006.088 6.088v-2a4.06 4.06 0 01-4.088-4.088h-2zm6.088 6.088a6.06 6.06 0 006.088-6.088h-2a4.06 4.06 0 01-4.088 4.088v2zm6.088-6.088a6.06 6.06 0 00-6.088-6.088v2a4.06 4.06 0 014.088 4.088h2zm105.157 9.264l-.707.707.707-.707zm0 8.592l-.707-.707.707.707zm-.48-32.832l-.707.707.707-.707zm0 8.592l-.707-.707.707.707zm-19.584.384v-1h-1v1h1zm0 3.024h-1v1h1v-1zm16.944.384l-.707.707.707-.707zm0 8.064l-.707-.707.707.707zm-16.944.384v-1h-1v1h1zm0 3.024h-1v1h1v-1zm19.152 1c.078 0 .13.017.205.091l1.414-1.414a2.243 2.243 0 00-1.619-.677v2zm.205.091c.074.075.091.127.091.205h2c0-.626-.239-1.182-.677-1.62l-1.414 1.415zm.091.205v6.768h2v-6.768h-2zm0 6.768c0 .078-.017.13-.091.205l1.414 1.414c.438-.437.677-.993.677-1.619h-2zm-.091.205c-.075.074-.127.091-.205.091v2c.626 0 1.182-.24 1.619-.677l-1.414-1.414zm-.205.091h-30.336v2h30.336v-2zm-30.336 0c-.078 0-.13-.017-.205-.091l-1.414 1.414c.437.438.993.677 1.619.677v-2zm-.205-.091c-.074-.075-.091-.127-.091-.205h-2c0 .626.239 1.182.677 1.62l1.414-1.415zm-.091-.205V2.696h-2v31.008h2zm0-31.008c0-.078.017-.13.091-.205l-1.414-1.414a2.243 2.243 0 00-.677 1.619h2zm.091-.205c.075-.074.127-.091.205-.091v-2c-.626 0-1.182.24-1.619.677l1.414 1.414zm.205-.091h29.856v-2h-29.856v2zm29.856 0c.078 0 .13.017.205.091l1.414-1.414A2.243 2.243 0 00861.697.4v2zm.205.091c.074.075.091.127.091.205h2c0-.626-.239-1.182-.677-1.62l-1.414 1.415zm.091.205v6.768h2V2.696h-2zm0 6.768c0 .078-.017.13-.091.205l1.414 1.414c.438-.437.677-.993.677-1.619h-2zm-.091.205c-.075.074-.127.091-.205.091v2c.626 0 1.182-.24 1.619-.677l-1.414-1.414zm-.205.091h-18.672v2h18.672v-2zm-19.672 1v3.024h2V10.76h-2zm1 4.024h16.032v-2h-16.032v2zm16.032 0c.078 0 .13.017.205.091l1.414-1.414a2.243 2.243 0 00-1.619-.677v2zm.205.091c.074.075.091.127.091.205h2c0-.626-.239-1.182-.677-1.62l-1.414 1.415zm.091.205v6.24h2v-6.24h-2zm0 6.24c0 .078-.017.13-.091.205l1.414 1.414c.438-.437.677-.993.677-1.619h-2zm-.091.205c-.075.074-.127.091-.205.091v2c.626 0 1.182-.24 1.619-.677l-1.414-1.414zm-.205.091h-16.032v2h16.032v-2zm-17.032 1v3.024h2v-3.024h-2zm1 4.024h19.152v-2h-19.152v2zm48.077-24.856l-.707.707.707-.707zm.384 23.376h-1v1h1v-1zm16.368 1c.079 0 .131.017.205.091l1.414-1.414a2.243 2.243 0 00-1.619-.677v2zm.205.091c.075.075.091.127.091.205h2c0-.626-.239-1.182-.677-1.62l-1.414 1.415zm.091.205v7.248h2v-7.248h-2zm0 7.248c0 .078-.016.13-.091.205l1.414 1.414c.438-.437.677-.993.677-1.619h-2zm-.091.205c-.074.074-.126.091-.205.091v2c.626 0 1.182-.24 1.619-.677l-1.414-1.414zm-.205.091h-28.032v2h28.032v-2zm-28.032 0c-.078 0-.13-.017-.205-.091l-1.414 1.414c.438.438.994.677 1.619.677v-2zm-.205-.091c-.074-.075-.091-.127-.091-.205h-2c0 .626.24 1.182.677 1.62l1.414-1.415zm-.091-.205V2.696h-2v31.008h2zm0-31.008c0-.078.017-.13.091-.205l-1.414-1.414a2.247 2.247 0 00-.677 1.619h2zm.091-.205c.075-.074.127-.091.205-.091v-2c-.625 0-1.181.24-1.619.677l1.414 1.414zm.205-.091h10.368v-2h-10.368v2zm10.368 0c.079 0 .131.017.205.091l1.414-1.414A2.243 2.243 0 00890.19.4v2zm.205.091c.075.075.091.127.091.205h2c0-.626-.239-1.182-.677-1.62l-1.414 1.415zm.091.205V25.16h2V2.696h-2zm1 23.464h16.368v-2h-16.368v2zm62.766-.136l-.708.707.708-.707zm0 8.592l-.708-.707.708.707zm-.48-32.832l-.708.707.708-.707zm0 8.592l-.708-.707.708.707zm-19.584.384v-1h-1v1h1zm0 3.024h-1v1h1v-1zm16.944.384l-.708.707.708-.707zm0 8.064l-.708-.707.708.707zm-16.944.384v-1h-1v1h1zm0 3.024h-1v1h1v-1zm19.152 1c.078 0 .13.017.204.091l1.415-1.414a2.246 2.246 0 00-1.619-.677v2zm.204.091c.075.075.092.127.092.205h2c0-.626-.24-1.182-.677-1.62l-1.415 1.415zm.092.205v6.768h2v-6.768h-2zm0 6.768c0 .078-.017.13-.092.205l1.415 1.414c.437-.437.677-.993.677-1.619h-2zm-.092.205c-.074.074-.126.091-.204.091v2c.625 0 1.181-.24 1.619-.677l-1.415-1.414zm-.204.091h-30.336v2h30.336v-2zm-30.336 0c-.079 0-.131-.017-.205-.091l-1.415 1.414c.438.438.994.677 1.62.677v-2zm-.205-.091c-.075-.075-.091-.127-.091-.205h-2c0 .626.239 1.182.676 1.62l1.415-1.415zm-.091-.205V2.696h-2v31.008h2zm0-31.008c0-.078.016-.13.091-.205l-1.415-1.414a2.246 2.246 0 00-.676 1.619h2zm.091-.205c.074-.074.126-.091.205-.091v-2c-.626 0-1.182.24-1.62.677l1.415 1.414zm.205-.091h29.856v-2h-29.856v2zm29.856 0c.078 0 .13.017.204.091l1.415-1.414A2.246 2.246 0 00952.86.4v2zm.204.091c.075.075.092.127.092.205h2c0-.626-.24-1.182-.677-1.62l-1.415 1.415zm.092.205v6.768h2V2.696h-2zm0 6.768c0 .078-.017.13-.092.205l1.415 1.414c.437-.437.677-.993.677-1.619h-2zm-.092.205c-.074.074-.126.091-.204.091v2c.625 0 1.181-.24 1.619-.677l-1.415-1.414zm-.204.091h-18.672v2h18.672v-2zm-19.672 1v3.024h2V10.76h-2zm1 4.024h16.032v-2h-16.032v2zm16.032 0c.078 0 .13.017.204.091l1.415-1.414a2.246 2.246 0 00-1.619-.677v2zm.204.091c.075.075.092.127.092.205h2c0-.626-.24-1.182-.677-1.62l-1.415 1.415zm.092.205v6.24h2v-6.24h-2zm0 6.24c0 .078-.017.13-.092.205l1.415 1.414c.437-.437.677-.993.677-1.619h-2zm-.092.205c-.074.074-.126.091-.204.091v2c.625 0 1.181-.24 1.619-.677l-1.415-1.414zm-.204.091h-16.032v2h16.032v-2zm-17.032 1v3.024h2v-3.024h-2zm1 4.024h19.152v-2h-19.152v2zm46.061-1.576l-.632.775.007.006.007.005.618-.786zm6.576.384l-.574-.82.574.82zm1.632-2.016l-.895-.447.895.447zm12.763-.912l-.75.65.05.06.05.05.65-.76zM999.593 29l.817.577v-.006l-.817-.571zm-6 4.656l.416.91.005-.003-.421-.907zm-18.912.288l-.37.93.007.002.007.003.356-.935zm-6.336-4.8l-.812.585.005.005.807-.59zm0-21.84l.807.59.004-.005-.811-.585zm6.336-4.8l.359.933.006-.002-.365-.931zm18.912.288l-.426.905.007.003.007.003.412-.911zm6 4.656l-.821.57.004.007.817-.577zm1.627 6.48l.71.707-.71-.707zm-12.763-.96l-.895.447.895-.447zm-1.632-2.016l.573-.82-.573.82zm-6.576.384l-.618-.786-.007.005-.007.006.632.775zm-2.296 10.704c0 1.553.525 2.87 1.664 3.8l1.263-1.551c-.588-.48-.927-1.178-.927-2.249h-2zm1.678 3.81c1.121.881 2.562 1.27 4.218 1.27v-2c-1.352 0-2.312-.315-2.982-.842l-1.236 1.572zm4.218 1.27c1.417 0 2.658-.23 3.549-.853l-1.147-1.638c-.389.272-1.132.491-2.402.491v2zm3.549-.853c.81-.566 1.451-1.384 1.953-2.388l-1.789-.894c-.394.788-.84 1.314-1.311 1.644l1.147 1.638zm1.953-2.388c.311-.62.585-.695.786-.695v-2c-1.207 0-2.053.758-2.575 1.8l1.789.895zm.786-.695h10.363v-2h-10.363v2zm10.363 0c.01 0 .01 0 0 0 0-.002-.01-.005-.02-.01s-.02-.01-.02-.012c-.01-.002 0 0 .01.009l1.51-1.302c-.37-.44-.89-.685-1.48-.685v2zm.07.095c.01.008.01.01.01.008 0-.003 0-.01-.01-.02 0-.01-.01-.02-.01-.026v-.001h2c0-.588-.25-1.103-.68-1.48l-1.31 1.52zm-.01-.039c0 1.714-.572 3.438-1.788 5.19l1.638 1.14c1.41-2.024 2.15-4.14 2.15-6.33h-2zm-1.784 5.183c-1.185 1.676-3.028 3.13-5.604 4.326l.842 1.814c2.799-1.3 4.956-2.95 6.396-4.986l-1.634-1.154zm-5.6 4.324c-2.491 1.14-5.588 1.733-9.327 1.733v2c3.94 0 7.339-.623 10.16-1.915l-.833-1.818zm-9.327 1.733c-3.325 0-6.257-.497-8.812-1.47l-.712 1.869c2.821 1.074 6.001 1.601 9.524 1.601v-2zm-8.799-1.465c-2.495-.992-4.45-2.48-5.898-4.461l-1.614 1.18c1.687 2.308 3.956 4.02 6.773 5.14l.739-1.86zm-5.894-4.456c-1.422-1.973-2.163-4.46-2.163-7.527h-2c0 3.398.826 6.318 2.54 8.697l1.623-1.17zm-2.163-7.527v-5.664h-2v5.664h2zm0-5.664c0-3.067.741-5.535 2.159-7.474l-1.614-1.18c-1.719 2.35-2.545 5.257-2.545 8.654h2zm2.163-7.48c1.447-2.008 3.398-3.492 5.884-4.45l-.719-1.867c-2.825 1.09-5.099 2.805-6.788 5.148l1.623 1.17zm5.89-4.453c2.552-1.003 5.481-1.515 8.803-1.515v-2c-3.527 0-6.71.544-9.534 1.653l.731 1.862zm8.803-1.515c3.736 0 6.83.608 9.318 1.777l.851-1.81C991.195.56 987.792-.08 983.849-.08v2zm9.332 1.783c2.569 1.162 4.407 2.612 5.591 4.316l1.638-1.142c-1.436-2.072-3.598-3.726-6.405-4.996l-.824 1.822zm5.595 4.322c1.213 1.716 1.784 3.422 1.784 5.135h2c0-2.191-.74-4.293-2.15-6.29l-1.634 1.155zm1.784 5.135v.008s0-.001 0 0c0 0 0 .004-.01.013 0 .008-.01.022-.03.04l1.41 1.414c.39-.39.63-.894.63-1.475h-2zm-.04.06c-.01.005-.01.004 0 .002 0-.002 0-.005.01-.006 0-.002.01-.002 0-.002 0 0-.01.002-.03.002v2c.54 0 1.04-.19 1.43-.58l-1.41-1.415zm-.02-.004h-10.363v2h10.363v-2zm-10.363 0c-.201 0-.475-.074-.786-.695l-1.789.894c.522 1.043 1.368 1.801 2.575 1.801v-2zm-.786-.695c-.502-1.004-1.143-1.822-1.953-2.388l-1.147 1.638c.471.33.917.856 1.311 1.644l1.789-.894zm-1.953-2.388c-.891-.624-2.132-.853-3.549-.853v2c1.27 0 2.013.219 2.402.491l1.147-1.638zm-3.549-.853c-1.656 0-3.097.389-4.218 1.27l1.236 1.572c.67-.527 1.63-.842 2.982-.842v-2zm-4.232 1.28c-1.139.93-1.664 2.247-1.664 3.8h2c0-1.07.339-1.77.927-2.249l-1.263-1.55zm-1.664 3.8v7.68h2v-7.68h-2zm57.237-2.64v-1h-1v1h1zm-.38 22.896l.7.707-.7-.707zm-11.72 0l-.7.707.7-.707zm-.38-22.896h1v-1h-1v1zm22.8-9.32c.08 0 .13.017.2.091l1.42-1.414a2.244 2.244 0 00-1.62-.677v2zm.2.091c.08.075.1.127.1.205h2c0-.626-.24-1.182-.68-1.62l-1.42 1.415zm.1.205v7.728h2V2.696h-2zm0 7.728c0 .078-.02.13-.1.205l1.42 1.414c.44-.437.68-.993.68-1.619h-2zm-.1.205c-.07.074-.12.091-.2.091v2c.63 0 1.18-.24 1.62-.677l-1.42-1.414zm-.2.091h-10.32v2h10.32v-2zm-11.32 1v21.984h2V11.72h-2zm0 21.984c0 .078-.02.13-.09.205l1.41 1.414c.44-.437.68-.993.68-1.619h-2zm-.09.205c-.08.074-.13.091-.21.091v2c.63 0 1.19-.24 1.62-.677l-1.41-1.414zm-.21.091h-9.88v2h9.88v-2zm-9.88 0c-.08 0-.13-.017-.21-.091l-1.41 1.414c.43.438.99.677 1.62.677v-2zm-.21-.091c-.07-.075-.09-.127-.09-.205h-2c0 .626.24 1.182.68 1.62l1.41-1.415zm-.09-.205V11.72h-2v21.984h2zm-1-22.984h-10.32v2h10.32v-2zm-10.32 0c-.08 0-.13-.017-.2-.091l-1.42 1.414c.44.438.99.677 1.62.677v-2zm-.2-.091c-.08-.075-.1-.127-.1-.205h-2c0 .626.24 1.182.68 1.62l1.42-1.415zm-.1-.205V2.696h-2v7.728h2zm0-7.728c0-.078.02-.13.1-.205l-1.42-1.414c-.44.437-.68.993-.68 1.619h2zm.1-.205c.07-.074.12-.091.2-.091v-2c-.63 0-1.18.24-1.62.677l1.42 1.414zm.2-.091h33.12v-2h-33.12v2zm81.2 31.112l.89-.447v-.012l-.01-.013-.88.472zm-.24 1.2l-.71-.707.71.707zm-12.87-.048l-.53.844.01.01.02.01.5-.864zm-.76-.864l-.92.406v.008l.92-.414zm-4.23-9.504l.92-.406-.27-.594h-.65v1zm-4.03 0v-1h-1v1h1zm-.38 10.32l-.71-.707.71.707zM1086 2.792l-.39.918v.002l.39-.92zm5 4.032l-.84.548.84-.548zm-3.32 15.648l-.5-.865-.83.485.45.852.88-.472zm-8.59-7.728l.76.65.01-.012.01-.013-.78-.625zm0-3.6l-.84.543.02.03.02.027.8-.6zm-7.63-.816v-1h-1v1h1zm0 5.088h-1v1h1v-1zm21.23 18.543v-.015c-.01-.005-.01-.009-.01-.011v.011h2c0-.297-.06-.597-.2-.88l-1.79.895zm-.01-.015v.008s0-.001 0 0v.013c-.01.008-.02.022-.04.04l1.41 1.414c.4-.39.63-.894.63-1.475h-2zm-.04.06v.002c0-.002.01-.005.01-.007h.01l-.03.001v2c.53 0 1.03-.19 1.42-.58l-1.41-1.415zm-.01-.004h-10.9v2h10.9v-2zm-10.9 0c-.27 0-.51-.066-.74-.2l-1.01 1.728c.54.314 1.13.472 1.75.472v-2zm-.71-.18a.972.972 0 01-.39-.434l-1.83.828c.25.542.64.974 1.15 1.294l1.07-1.688zm-.39-.426l-4.22-9.504-1.83.812 4.22 9.504 1.83-.812zm-5.14-10.098h-4.03v2h4.03v-2zm-5.03 1v9.408h2v-9.408h-2zm0 9.408c0 .078-.02.13-.09.205l1.41 1.414c.44-.437.68-.993.68-1.619h-2zm-.09.205c-.08.074-.13.091-.21.091v2c.63 0 1.18-.24 1.62-.677l-1.41-1.414zm-.21.091h-10.36v2h10.36v-2zm-10.36 0a.254.254 0 01-.21-.091l-1.41 1.414c.43.438.99.677 1.62.677v-2zm-.21-.091c-.07-.075-.09-.127-.09-.205h-2c0 .626.24 1.182.68 1.62l1.41-1.415zm-.09-.205V2.696h-2v31.008h2zm0-31.008c0-.078.02-.13.09-.205l-1.41-1.414c-.44.437-.68.993-.68 1.619h2zm.09-.205a.254.254 0 01.21-.091v-2c-.63 0-1.19.24-1.62.677l1.41 1.414zm.21-.091h18.67v-2h-18.67v2zm18.67 0c2.77 0 5.14.447 7.14 1.31l.79-1.836C1084.11.881 1081.45.4 1078.47.4v2zm7.14 1.312c2.02.86 3.52 2.085 4.55 3.66l1.67-1.096c-1.27-1.945-3.1-3.408-5.43-4.404l-.79 1.84zm4.55 3.66c1.03 1.577 1.56 3.445 1.56 5.644h2c0-2.537-.62-4.797-1.89-6.74l-1.67 1.096zm1.56 5.644c0 4.047-1.53 6.843-4.54 8.591l1.01 1.73c3.71-2.156 5.53-5.664 5.53-10.321h-2zm-4.92 9.928l5.91 11.04 1.76-.944-5.9-11.04-1.77.944zm-9.34-6.528c.93 0 1.78-.308 2.39-1.021l-1.52-1.302c-.15.184-.4.323-.87.323v2zm2.41-1.047c.55-.683.8-1.505.8-2.401h-2c0 .512-.14.874-.36 1.151l1.56 1.25zm.8-2.401c0-.898-.25-1.722-.78-2.424l-1.6 1.2c.24.322.38.713.38 1.224h2zm-.74-2.367c-.56-.872-1.45-1.273-2.47-1.273v2c.45 0 .65.143.79.36l1.68-1.087zm-2.47-1.273h-6v2h6v-2zm-7 1v5.088h2v-5.088h-2zm1 6.088h6v-2h-6v2zm55.18 8.744h-1v1h1v-1zm-12.96 0v1h1v-1h-1zm0-13.92h1v-1h-1v1zm-9.7-.384l-.7.707.7-.707zm32.26 0l.71.707-.71-.707zm-9.6.384v-1h-1v1h1zm0 14.92h8.69v-2h-8.69v2zm8.69 0c.08 0 .13.017.2.091l1.42-1.414a2.26 2.26 0 00-1.62-.677v2zm.2.091c.08.075.09.127.09.205h2c0-.626-.23-1.182-.67-1.62l-1.42 1.415zm.09.205v7.248h2v-7.248h-2zm0 7.248c0 .078-.01.13-.09.205l1.42 1.414c.44-.437.67-.993.67-1.619h-2zm-.09.205c-.07.074-.12.091-.2.091v2c.62 0 1.18-.24 1.62-.677l-1.42-1.414zm-.2.091h-30.43v2h30.43v-2zm-30.43 0c-.08 0-.13-.017-.21-.091l-1.41 1.414c.43.438.99.677 1.62.677v-2zm-.21-.091c-.07-.075-.09-.127-.09-.205h-2c0 .626.24 1.182.68 1.62l1.41-1.415zm-.09-.205v-7.248h-2v7.248h2zm0-7.248c0-.078.02-.13.09-.205l-1.41-1.414c-.44.437-.68.993-.68 1.619h2zm.09-.205c.08-.074.13-.091.21-.091v-2c-.63 0-1.19.24-1.62.677l1.41 1.414zm.21-.091h8.78v-2h-8.78v2zm9.78-1V11.24h-2v13.92h2zm-1-14.92h-8.78v2h8.78v-2zm-8.78 0c-.08 0-.13-.017-.21-.091l-1.41 1.414c.43.438.99.677 1.62.677v-2zm-.21-.091c-.07-.075-.09-.127-.09-.205h-2c0 .626.24 1.182.68 1.62l1.41-1.415zm-.09-.205V2.696h-2v7.248h2zm0-7.248c0-.078.02-.13.09-.205l-1.41-1.414c-.44.437-.68.993-.68 1.619h2zm.09-.205c.08-.074.13-.091.21-.091v-2c-.63 0-1.19.24-1.62.677l1.41 1.414zm.21-.091h30.43v-2h-30.43v2zm30.43 0c.08 0 .13.017.2.091l1.42-1.414a2.26 2.26 0 00-1.62-.677v2zm.2.091c.08.075.09.127.09.205h2c0-.626-.23-1.182-.67-1.62l-1.42 1.415zm.09.205v7.248h2V2.696h-2zm0 7.248c0 .078-.01.13-.09.205l1.42 1.414c.44-.437.67-.993.67-1.619h-2zm-.09.205c-.07.074-.12.091-.2.091v2c.62 0 1.18-.24 1.62-.677l-1.42-1.414zm-.2.091h-8.69v2h8.69v-2zm-9.69 1v13.92h2V11.24h-2zm36.93 13.824l-.63.775.01.006.01.005.61-.786zm6.58.384l-.57-.82.57.82zm1.63-2.016l-.89-.447.89.447zm12.77-.912l-.76.65.05.06.06.05.65-.76zm-1.63 6.48l.81.577.01-.006-.82-.571zm-6 4.656l.41.91.01-.003-.42-.907zm-18.91.288l-.37.93v.002l.01.003.36-.935zm-6.34-4.8l-.81.585v.005l.81-.59zm0-21.84l.81.59V7.89l-.81-.585zm6.34-4.8l.36.933v-.002l-.36-.931zm18.91.288l-.43.905.01.003.01.003.41-.911zm6 4.656l-.82.57v.007l.82-.577zm1.63 6.48l.71.707-.71-.707zm-12.77-.96l-.89.447.89-.447zm-1.63-2.016l.57-.82-.57.82zm-6.58.384l-.61-.786-.01.005-.01.006.63.775zm-2.29 10.704c0 1.553.52 2.87 1.66 3.8l1.27-1.551c-.59-.48-.93-1.178-.93-2.249h-2zm1.68 3.81c1.12.881 2.56 1.27 4.21 1.27v-2c-1.35 0-2.31-.315-2.98-.842l-1.23 1.572zm4.21 1.27c1.42 0 2.66-.23 3.55-.853l-1.14-1.638c-.39.272-1.14.491-2.41.491v2zm3.55-.853c.81-.566 1.45-1.384 1.96-2.388l-1.79-.894c-.4.788-.84 1.314-1.31 1.644l1.14 1.638zm1.96-2.388c.31-.62.58-.695.78-.695v-2c-1.21 0-2.05.758-2.57 1.8l1.79.895zm.78-.695h10.37v-2h-10.37v2zm10.37 0c.01 0 .01 0 0 0a.104.104 0 01-.03-.01c-.01-.005-.01-.01-.02-.012 0-.002 0 0 .01.009l1.52-1.302c-.38-.44-.89-.685-1.48-.685v2zm.07.095c.01.008.01.01.01.008-.01-.003-.01-.01-.01-.02-.01-.01-.01-.02-.01-.026v-.001h2c0-.588-.25-1.103-.69-1.48l-1.3 1.52zm-.01-.039c0 1.714-.58 3.438-1.79 5.19l1.64 1.14c1.41-2.024 2.15-4.14 2.15-6.33h-2zm-1.79 5.183c-1.18 1.676-3.03 3.13-5.6 4.326l.84 1.814c2.8-1.3 4.96-2.95 6.39-4.986l-1.63-1.154zm-5.6 4.324c-2.49 1.14-5.59 1.733-9.33 1.733v2c3.94 0 7.34-.623 10.16-1.915l-.83-1.818zm-9.33 1.733c-3.32 0-6.25-.497-8.81-1.47l-.71 1.869c2.82 1.074 6 1.601 9.52 1.601v-2zm-8.79-1.465c-2.5-.992-4.45-2.48-5.9-4.461l-1.62 1.18c1.69 2.308 3.96 4.02 6.78 5.14l.74-1.86zm-5.9-4.456c-1.42-1.973-2.16-4.46-2.16-7.527h-2c0 3.398.82 6.318 2.54 8.697l1.62-1.17zm-2.16-7.527v-5.664h-2v5.664h2zm0-5.664c0-3.067.74-5.535 2.16-7.474l-1.62-1.18c-1.72 2.35-2.54 5.257-2.54 8.654h2zm2.16-7.48c1.45-2.008 3.4-3.492 5.89-4.45l-.72-1.867c-2.83 1.09-5.1 2.805-6.79 5.148l1.62 1.17zm5.89-4.453c2.55-1.003 5.48-1.515 8.8-1.515v-2c-3.52 0-6.71.544-9.53 1.653l.73 1.862zm8.8-1.515c3.74 0 6.83.608 9.32 1.777l.85-1.81c-2.82-1.327-6.22-1.967-10.17-1.967v2zm9.34 1.783c2.56 1.162 4.4 2.612 5.59 4.316l1.64-1.142c-1.44-2.072-3.6-3.726-6.41-4.996l-.82 1.822zm5.59 4.322c1.21 1.716 1.79 3.422 1.79 5.135h2c0-2.191-.74-4.293-2.16-6.29l-1.63 1.155zm1.79 5.135v.008s0-.001 0 0c0 0-.01.004-.01.013-.01.008-.02.022-.04.04l1.42 1.414c.39-.39.63-.894.63-1.475h-2zm-.05.06v.002c.01-.002.01-.005.01-.006l.01-.002c-.01 0-.01.002-.03.002v2c.54 0 1.04-.19 1.43-.58l-1.42-1.415zm-.01-.004h-10.37v2h10.37v-2zm-10.37 0c-.2 0-.47-.074-.78-.695l-1.79.894c.52 1.043 1.36 1.801 2.57 1.801v-2zm-.78-.695c-.51-1.004-1.15-1.822-1.96-2.388l-1.14 1.638c.47.33.91.856 1.31 1.644l1.79-.894zm-1.96-2.388c-.89-.624-2.13-.853-3.55-.853v2c1.27 0 2.02.219 2.41.491l1.14-1.638zm-3.55-.853c-1.65 0-3.09.389-4.21 1.27l1.23 1.572c.67-.527 1.63-.842 2.98-.842v-2zm-4.23 1.28c-1.14.93-1.66 2.247-1.66 3.8h2c0-1.07.34-1.77.93-2.249l-1.27-1.55zm-1.66 3.8v7.68h2v-7.68h-2zm100.18-3.688a6.058 6.058 0 00-6.09 6.088h2c0-2.28 1.81-4.088 4.09-4.088v-2zm-6.09 6.088c0 3.384 2.7 6.088 6.09 6.088v-2a4.062 4.062 0 01-4.09-4.088h-2zm6.09 6.088c3.38 0 6.08-2.704 6.08-6.088h-2c0 2.28-1.8 4.088-4.08 4.088v2zm6.08-6.088c0-3.384-2.7-6.088-6.08-6.088v2c2.28 0 4.08 1.808 4.08 4.088h2z"/></svg>
